<?xml version="1.0" standalone="no"?>
<!DOCTYPE svg PUBLIC "-//W3C//DTD SVG 20010904//EN"
 "http://www.w3.org/TR/2001/REC-SVG-20010904/DTD/svg10.dtd">
<svg version="1.0" xmlns="http://www.w3.org/2000/svg"
 width="242.000000pt" height="242.000000pt" viewBox="0 0 242.000000 242.000000"
 preserveAspectRatio="xMidYMid meet">
<metadata>
Created by potrace 1.14, written by Peter Selinger 2001-2017
</metadata>
<g transform="translate(0.000000,242.000000) scale(0.100000,-0.100000)"
fill="#000000" stroke="none">
<path d="M1068 2073 c-97 -16 -114 -20 -173 -40 -48 -17 -195 -90 -205 -102
-3 -3 -22 -17 -42 -31 -47 -31 -40 -42 14 -23 63 23 81 25 212 28 122 2 153
-2 266 -35 161 -48 319 -187 402 -355 22 -43 53 -125 50 -132 0 -2 6 -26 14
-55 8 -29 17 -97 21 -152 l6 -98 -21 13 c-17 11 -22 24 -22 56 0 24 5 43 10
43 6 0 10 7 10 16 0 8 -4 13 -9 10 -5 -3 -12 4 -15 17 l-7 22 -11 -22 c-8 -16
-21 -23 -51 -25 l-40 -3 -1 -60 c-1 -51 -4 -60 -21 -64 -15 -3 -17 0 -8 10 22
28 25 75 5 99 -21 26 -73 30 -95 8 -22 -22 -28 -63 -12 -84 22 -29 19 -32 -37
-30 -52 1 -53 2 -53 31 0 25 5 31 30 35 34 6 60 48 50 80 -8 25 -52 47 -82 42
-26 -4 -25 -1 -24 -104 0 -43 -3 -79 -7 -79 -4 -1 -185 -3 -402 -4 -217 -2
-398 -3 -402 -4 -13 -2 2 -81 27 -143 43 -106 115 -182 221 -234 78 -38 117
-46 238 -49 121 -4 172 7 275 57 66 32 83 44 162 116 34 31 52 41 62 35 31
-17 156 -118 161 -129 5 -14 -31 -54 -98 -109 -27 -22 -54 -44 -60 -50 -41
-36 -176 -100 -253 -120 -79 -21 -133 -27 -233 -29 -76 -2 -107 1 -187 18 -32
7 -29 3 17 -28 22 -14 40 -23 40 -20 0 3 12 -1 26 -11 14 -9 33 -18 42 -21 9
-2 55 -16 102 -30 74 -23 104 -27 225 -27 206 -2 339 36 505 144 80 52 250
220 250 248 0 5 6 16 13 23 31 33 114 224 102 236 -2 3 -1 10 4 16 5 6 12 32
15 59 l7 47 -31 0 c-42 0 -67 27 -66 69 1 47 40 77 80 61 l28 -10 -6 57 c-6
67 -21 159 -31 188 -39 116 -143 305 -168 305 -6 0 -8 3 -4 6 7 8 -99 114
-114 114 -7 0 -9 3 -6 6 8 8 -98 79 -165 112 -54 26 -171 68 -214 77 -99 20
-226 23 -316 8z m613 -826 c-14 -14 -15 -40 -1 -32 6 3 10 -1 10 -9 0 -9 -4
-16 -10 -16 -5 0 -10 -25 -10 -55 0 -73 -20 -71 -22 3 -2 88 2 115 20 128 20
15 30 -2 13 -19z m210 11 c1 -13 0 -156 -1 -170 0 -5 -4 -8 -10 -8 -6 0 -10
38 -10 95 0 57 4 95 10 95 6 0 10 -6 11 -12z m63 -3 c3 -9 0 -15 -8 -15 -8 0
-16 7 -20 15 -3 9 0 15 8 15 8 0 16 -7 20 -15z m-650 -27 c13 -21 -2 -51 -27
-56 -18 -4 -31 30 -22 59 8 23 33 22 49 -3z m502 -17 c13 -1 34 -45 34 -73 0
-26 -36 -58 -64 -58 -37 0 -66 28 -66 63 1 48 31 79 70 71 8 -1 20 -3 26 -3z
m144 -66 c0 -37 -4 -65 -10 -65 -11 0 -12 7 -12 75 0 56 0 55 12 55 6 0 10
-28 10 -65z m-526 39 c37 -37 7 -97 -39 -76 -18 8 -23 19 -23 41 1 25 12 38
45 50 1 1 9 -6 17 -15z m141 -54 c1 -49 0 -49 -30 -47 -25 2 -31 7 -33 31 -5
42 6 74 26 79 27 6 36 -10 37 -63z"/>
<path d="M1750 1180 c-11 -11 -20 -26 -20 -34 0 -18 27 -46 44 -46 16 0 43 31
40 48 -1 6 -2 16 -3 22 0 5 -10 14 -21 20 -15 8 -24 6 -40 -10z"/>
<path d="M773 1675 c-24 -7 -43 -11 -43 -9 0 2 -30 -11 -68 -30 -132 -66 -238
-207 -245 -326 l-2 -25 468 0 c398 0 467 2 467 14 0 40 -57 174 -90 211 -12
14 -30 34 -39 45 -37 44 -140 102 -216 121 -53 13 -188 12 -232 -1z"/>
<path d="M2033 1189 c-13 -4 -23 -12 -24 -16 0 -4 -2 -18 -3 -30 -3 -29 33
-49 61 -34 14 7 19 19 17 37 -4 37 -24 54 -51 43z"/>
</g>
</svg>
